<svg width="1920" height="1106" viewBox="0 0 1920 1106" fill="none" xmlns="http://www.w3.org/2000/svg">
<path fill-rule="evenodd" clip-rule="evenodd" d="M1920 0H0V1106H1920V0ZM72 34C49.9086 34 32 51.9086 32 74V1038C32 1060.09 49.9086 1078 72 1078H1196C1218.09 1078 1236 1060.09 1236 1038V355C1236 346.163 1243.16 339 1252 339C1260.84 339 1268 346.163 1268 355V406C1268 428.091 1285.91 446 1308 446H1848C1870.09 446 1888 428.091 1888 406V74C1888 51.9086 1870.09 34 1848 34H1308C1285.91 34 1268 51.9086 1268 74V107C1268 115.837 1260.84 123 1252 123C1243.16 123 1236 115.837 1236 107V74C1236 51.9086 1218.09 34 1196 34H72Z" fill="#FAF7F2"/>
</svg>
